{
  "accessors": [
    {
      "bufferView": 2,
      "componentType": 5126,
      "count": 11446,
      "max": [
        7.599708080291748,
        9.66375732421875,
        6.1558771133422852
      ],
      "min": [
        -6.8400578498840332,
        -157.98590087890625,
        -3.8788840770721436
      ],
      "type": "VEC3"
    },
    {
      "bufferView": 2,
      "byteOffset": 137352,
      "componentType": 5126,
      "count": 11446,
      "max": [
        0.99999350309371948,
        0.99997061491012573,
        1
      ],
      "min": [
        -0.99999290704727173,
        -0.99998563528060913,
        -1
      ],
      "type": "VEC3"
    },
    {
      "bufferView": 3,
      "componentType": 5126,
      "count": 11446,
      "max": [
        0.99991786479949951,
        1,
        0.99999815225601196,
        1
      ],
      "min": [
        -0.9998314380645752,
        -0.99999934434890747,
        -0.99999803304672241,
        -1
      ],
      "type": "VEC4"
    },
    {
      "bufferView": 1,
      "componentType": 5126,
      "count": 11446,
      "max": [
        0.99834001064300537,
        0.98872101306915283
      ],
      "min": [
        0.027262000367045403,
        0.016697000712156296
      ],
      "type": "VEC2"
    },
    {
      "bufferView": 0,
      "componentType": 5125,
      "count": 20334,
      "max": [
        11445
      ],
      "min": [
        0
      ],
      "type": "SCALAR"
    }
  ],
  "asset": {
    "extras": {
      "author": "geniusrahman155 (https://sketchfab.com/geniusrahman155)",
      "license": "CC-BY-4.0 (http://creativecommons.org/licenses/by/4.0/)",
      "source": "https://sketchfab.com/3d-models/shattered-greatsword-589944d755e64b5bb048eaae0130b32d",
      "title": "Shattered Greatsword"
    },
    "generator": "Sketchfab-9.93.0",
    "version": "2.0"
  },
  "bufferViews": [
    {
      "buffer": 0,
      "byteLength": 81336,
      "byteOffset": 0,
      "name": "floatBufferViews",
      "target": 34963
    },
    {
      "buffer": 0,
      "byteLength": 91568,
      "byteOffset": 81336,
      "byteStride": 8,
      "name": "floatBufferViews",
      "target": 34962
    },
    {
      "buffer": 0,
      "byteLength": 274704,
      "byteOffset": 172904,
      "byteStride": 12,
      "name": "floatBufferViews",
      "target": 34962
    },
    {
      "buffer": 0,
      "byteLength": 183136,
      "byteOffset": 447608,
      "byteStride": 16,
      "name": "floatBufferViews",
      "target": 34962
    }
  ],
  "buffers": [
    {
      "byteLength": 630744,
      "uri": "scene.bin"
    }
  ],
  "images": [
    {
      "uri": "textures/DefaultMaterial_baseColor.jpeg"
    },
    {
      "uri": "textures/DefaultMaterial_metallicRoughness.png"
    },
    {
      "uri": "textures/DefaultMaterial_normal.png"
    }
  ],
  "materials": [
    {
      "doubleSided": true,
      "name": "DefaultMaterial",
      "normalTexture": {
        "index": 2,
        "scale": 1,
        "texCoord": 0
      },
      "pbrMetallicRoughness": {
        "baseColorFactor": [
          1,
          1,
          1,
          1
        ],
        "baseColorTexture": {
          "index": 0,
          "texCoord": 0
        },
        "metallicFactor": 1,
        "metallicRoughnessTexture": {
          "index": 1,
          "texCoord": 0
        },
        "roughnessFactor": 1
      }
    }
  ],
  "meshes": [
    {
      "name": "defaultMaterial",
      "primitives": [
        {
          "attributes": {
            "NORMAL": 1,
            "POSITION": 0,
            "TANGENT": 2,
            "TEXCOORD_0": 3
          },
          "indices": 4,
          "material": 0,
          "mode": 4
        }
      ]
    }
  ],
  "nodes": [
    {
      "children": [
        1
      ],
      "name": "RootNode (gltf orientation matrix)",
      "rotation": [
        -0.70710678118654746,
        -0,
        -0,
        0.70710678118654757
      ]
    },
    {
      "children": [
        2
      ],
      "matrix": [
        0.91869658231735229,
        -0.39471441507339478,
        0.014041095972061157,
        0,
        0.36353164911270142,
        0.85894733667373657,
        0.36063027381896973,
        0,
        -0.15440653264522552,
        -0.32620540261268616,
        0.93260318040847778,
        0,
        1.4418092966079712,
        0.21506354212760925,
        5.4886975288391113,
        1
      ],
      "name": "RootNode (model correction matrix)"
    },
    {
      "children": [
        3
      ],
      "matrix": [
        1,
        0,
        0,
        0,
        0,
        -4.3711390063094768e-08,
        0.999999999999999,
        0,
        0,
        -0.999999999999999,
        -4.3711390063094768e-08,
        0,
        0,
        0,
        0,
        1
      ],
      "name": "Collada visual scene group"
    },
    {
      "children": [
        4
      ],
      "matrix": [
        0.042444999999999997,
        0.998811,
        -0.018148999999999998,
        0,
        -0.31492500000000001,
        0.027137000000000001,
        0.048916000000000001,
        0,
        0.053326999999999999,
        0.0039319999999999997,
        0.34114100000000003,
        0,
        -26.853569,
        2.0218250000000002,
        3.0514709999999998,
        1
      ],
      "name": "Box002"
    },
    {
      "mesh": 0,
      "name": "defaultMaterial"
    }
  ],
  "samplers": [
    {
      "magFilter": 9729,
      "minFilter": 9987,
      "wrapS": 10497,
      "wrapT": 10497
    }
  ],
  "scene": 0,
  "scenes": [
    {
      "name": "OSG_Scene",
      "nodes": [
        0
      ]
    }
  ],
  "textures": [
    {
      "sampler": 0,
      "source": 0
    },
    {
      "sampler": 0,
      "source": 1
    },
    {
      "sampler": 0,
      "source": 2
    }
  ]
}

