{
  "accessors": [
    {
      "bufferView": 2,
      "componentType": 5126,
      "count": 26152,
      "max": [
        13.381965637207031,
        63.626575469970703,
        12.738517761230469
      ],
      "min": [
        -12.497660636901855,
        37.543533325195312,
        6.2389392852783203
      ],
      "type": "VEC3"
    },
    {
      "bufferView": 2,
      "byteOffset": 313824,
      "componentType": 5126,
      "count": 26152,
      "max": [
        1,
        0.9998968243598938,
        1
      ],
      "min": [
        -0.99994951486587524,
        -0.99988687038421631,
        -1
      ],
      "type": "VEC3"
    },
    {
      "bufferView": 3,
      "componentType": 5126,
      "count": 26152,
      "max": [
        0.99994504451751709,
        0.99994832277297974,
        0.99987238645553589,
        1
      ],
      "min": [
        -0.99999970197677612,
        -0.99988621473312378,
        -0.99998801946640015,
        -1
      ],
      "type": "VEC4"
    },
    {
      "bufferView": 1,
      "componentType": 5126,
      "count": 26152,
      "max": [
        0.99902534484863281,
        0.99950939416885376
      ],
      "min": [
        0.00048890587640926242,
        0.0009746551513671875
      ],
      "type": "VEC2"
    },
    {
      "bufferView": 0,
      "componentType": 5125,
      "count": 131664,
      "max": [
        26151
      ],
      "min": [
        0
      ],
      "type": "SCALAR"
    },
    {
      "bufferView": 2,
      "byteOffset": 627648,
      "componentType": 5126,
      "count": 35552,
      "max": [
        51.480300903320312,
        101.01774597167969,
        1.9279929399490356
      ],
      "min": [
        -50.538719177246094,
        0.028139140456914902,
        -12.056206703186035
      ],
      "type": "VEC3"
    },
    {
      "bufferView": 2,
      "byteOffset": 1054272,
      "componentType": 5126,
      "count": 35552,
      "max": [
        0.99998712539672852,
        0.99999672174453735,
        0.99995583295822144
      ],
      "min": [
        -0.99996232986450195,
        -0.9999995231628418,
        -0.9999929666519165
      ],
      "type": "VEC3"
    },
    {
      "bufferView": 3,
      "byteOffset": 418432,
      "componentType": 5126,
      "count": 35552,
      "max": [
        0.99999988079071045,
        0.99999582767486572,
        0.99999940395355225,
        1
      ],
      "min": [
        -0.99996179342269897,
        -0.99999701976776123,
        -0.99999910593032837,
        -1
      ],
      "type": "VEC4"
    },
    {
      "bufferView": 1,
      "byteOffset": 209216,
      "componentType": 5126,
      "count": 35552,
      "max": [
        0.99902534484863281,
        0.99967318773269653
      ],
      "min": [
        0.00032612046925351024,
        0.0009746551513671875
      ],
      "type": "VEC2"
    },
    {
      "bufferView": 0,
      "byteOffset": 526656,
      "componentType": 5125,
      "count": 177159,
      "max": [
        35551
      ],
      "min": [
        0
      ],
      "type": "SCALAR"
    },
    {
      "bufferView": 2,
      "byteOffset": 1480896,
      "componentType": 5126,
      "count": 6983,
      "max": [
        48.307220458984375,
        98.763076782226562,
        7.3221626281738281
      ],
      "min": [
        -47.375766754150391,
        2.4274966716766357,
        -10.532234191894531
      ],
      "type": "VEC3"
    },
    {
      "bufferView": 2,
      "byteOffset": 1564692,
      "componentType": 5126,
      "count": 6983,
      "max": [
        0.99851596355438232,
        0.98770564794540405,
        0.99999994039535522
      ],
      "min": [
        -0.99851596355438232,
        -0.99658167362213135,
        -0.99999994039535522
      ],
      "type": "VEC3"
    },
    {
      "bufferView": 3,
      "byteOffset": 987264,
      "componentType": 5126,
      "count": 6983,
      "max": [
        0.94110763072967529,
        0.99941444396972656,
        0.92168641090393066,
        1
      ],
      "min": [
        -0.90672779083251953,
        -0.97508043050765991,
        -0.99959081411361694,
        1
      ],
      "type": "VEC4"
    },
    {
      "bufferView": 1,
      "byteOffset": 493632,
      "componentType": 5126,
      "count": 6983,
      "max": [
        0.99902534484863281,
        0.99967443943023682
      ],
      "min": [
        0.00057412422029301524,
        0.0009746551513671875
      ],
      "type": "VEC2"
    },
    {
      "bufferView": 0,
      "byteOffset": 1235292,
      "componentType": 5125,
      "count": 40044,
      "max": [
        6982
      ],
      "min": [
        0
      ],
      "type": "SCALAR"
    },
    {
      "bufferView": 2,
      "byteOffset": 1648488,
      "componentType": 5126,
      "count": 23320,
      "max": [
        47.490734100341797,
        96.929878234863281,
        -3.7955262660980225
      ],
      "min": [
        -46.550788879394531,
        38.144428253173828,
        -12.926952362060547
      ],
      "type": "VEC3"
    },
    {
      "bufferView": 2,
      "byteOffset": 1928328,
      "componentType": 5126,
      "count": 23320,
      "max": [
        0.9999992847442627,
        0.99992460012435913,
        0.9999726414680481
      ],
      "min": [
        -0.9999995231628418,
        -0.9996790885925293,
        -0.99999135732650757
      ],
      "type": "VEC3"
    },
    {
      "bufferView": 3,
      "byteOffset": 1098992,
      "componentType": 5126,
      "count": 23320,
      "max": [
        0.99999994039535522,
        0.99999916553497314,
        0.99989998340606689,
        1
      ],
      "min": [
        -0.99999874830245972,
        -0.99997514486312866,
        -0.99923157691955566,
        -1
      ],
      "type": "VEC4"
    },
    {
      "bufferView": 1,
      "byteOffset": 549496,
      "componentType": 5126,
      "count": 23320,
      "max": [
        0.99902534484863281,
        0.99951255321502686
      ],
      "min": [
        0.00049641303485259414,
        0.0009746551513671875
      ],
      "type": "VEC2"
    },
    {
      "bufferView": 0,
      "byteOffset": 1395468,
      "componentType": 5125,
      "count": 120672,
      "max": [
        23319
      ],
      "min": [
        0
      ],
      "type": "SCALAR"
    },
    {
      "bufferView": 2,
      "byteOffset": 2208168,
      "componentType": 5126,
      "count": 6519,
      "max": [
        30.258134841918945,
        81.865684509277344,
        -0.31002131104469299
      ],
      "min": [
        -29.548873901367188,
        22.008783340454102,
        -5.2613730430603027
      ],
      "type": "VEC3"
    },
    {
      "bufferView": 2,
      "byteOffset": 2286396,
      "componentType": 5126,
      "count": 6519,
      "max": [
        0.99043381214141846,
        0.96522706747055054,
        0.9999995231628418
      ],
      "min": [
        -0.99371522665023804,
        -0.99959045648574829,
        -0.99999946355819702
      ],
      "type": "VEC3"
    },
    {
      "bufferView": 3,
      "byteOffset": 1472112,
      "componentType": 5126,
      "count": 6519,
      "max": [
        0.76426869630813599,
        1,
        0.99955117702484131,
        1
      ],
      "min": [
        -1,
        -0.92289018630981445,
        -0.99471944570541382,
        1
      ],
      "type": "VEC4"
    },
    {
      "bufferView": 1,
      "byteOffset": 736056,
      "componentType": 5126,
      "count": 6519,
      "max": [
        0.99902534484863281,
        0.99967443943023682
      ],
      "min": [
        0.00064117758302018046,
        0.0009746551513671875
      ],
      "type": "VEC2"
    },
    {
      "bufferView": 0,
      "byteOffset": 1878156,
      "componentType": 5125,
      "count": 38328,
      "max": [
        6518
      ],
      "min": [
        0
      ],
      "type": "SCALAR"
    },
    {
      "bufferView": 2,
      "byteOffset": 2364624,
      "componentType": 5126,
      "count": 17616,
      "max": [
        50.004520416259766,
        100.61840057373047,
        -3.3908872604370117
      ],
      "min": [
        -49.968952178955078,
        0.79977470636367798,
        -13.803568840026855
      ],
      "type": "VEC3"
    },
    {
      "bufferView": 2,
      "byteOffset": 2576016,
      "componentType": 5126,
      "count": 17616,
      "max": [
        0.99937677383422852,
        0.99909132719039917,
        0.99996119737625122
      ],
      "min": [
        -0.99961060285568237,
        -0.99994570016860962,
        -0.99997794628143311
      ],
      "type": "VEC3"
    },
    {
      "bufferView": 3,
      "byteOffset": 1576416,
      "componentType": 5126,
      "count": 17616,
      "max": [
        0.99953919649124146,
        0.99998772144317627,
        0.99969983100891113,
        1
      ],
      "min": [
        -0.99998259544372559,
        -0.99946355819702148,
        -0.99887996912002563,
        -1
      ],
      "type": "VEC4"
    },
    {
      "bufferView": 1,
      "byteOffset": 788208,
      "componentType": 5126,
      "count": 17616,
      "max": [
        0.99902534484863281,
        0.99949473142623901
      ],
      "min": [
        0.00049503962509334087,
        0.0009746551513671875
      ],
      "type": "VEC2"
    },
    {
      "bufferView": 0,
      "byteOffset": 2031468,
      "componentType": 5125,
      "count": 94392,
      "max": [
        17615
      ],
      "min": [
        0
      ],
      "type": "SCALAR"
    }
  ],
  "asset": {
    "extras": {
      "author": "Mualzavata (https://sketchfab.com/msta2219)",
      "license": "CC-BY-4.0 (http://creativecommons.org/licenses/by/4.0/)",
      "source": "https://sketchfab.com/3d-models/aegis-of-champions-be25c575619641c2a562cbbc7727da76",
      "title": "Aegis of champions"
    },
    "generator": "Sketchfab-9.0.0",
    "version": "2.0"
  },
  "bufferViews": [
    {
      "buffer": 0,
      "byteLength": 2409036,
      "byteOffset": 0,
      "name": "floatBufferViews",
      "target": 34963
    },
    {
      "buffer": 0,
      "byteLength": 929136,
      "byteOffset": 2409036,
      "byteStride": 8,
      "name": "floatBufferViews",
      "target": 34962
    },
    {
      "buffer": 0,
      "byteLength": 2787408,
      "byteOffset": 3338172,
      "byteStride": 12,
      "name": "floatBufferViews",
      "target": 34962
    },
    {
      "buffer": 0,
      "byteLength": 1858272,
      "byteOffset": 6125580,
      "byteStride": 16,
      "name": "floatBufferViews",
      "target": 34962
    }
  ],
  "buffers": [
    {
      "byteLength": 7983852,
      "uri": "scene.bin"
    }
  ],
  "images": [
    {
      "uri": "textures/FrontTip_baseColor.png"
    },
    {
      "uri": "textures/FrontTip_metallicRoughness.png"
    },
    {
      "uri": "textures/FrontTip_normal.png"
    },
    {
      "uri": "textures/Ageis_baseColor.png"
    },
    {
      "uri": "textures/Ageis_metallicRoughness.png"
    },
    {
      "uri": "textures/Ageis_normal.png"
    },
    {
      "uri": "textures/Shield_baseColor.png"
    },
    {
      "uri": "textures/Shield_metallicRoughness.png"
    },
    {
      "uri": "textures/Shield_normal.png"
    },
    {
      "uri": "textures/BackDecor_baseColor.png"
    },
    {
      "uri": "textures/BackDecor_metallicRoughness.png"
    },
    {
      "uri": "textures/BackDecor_normal.png"
    },
    {
      "uri": "textures/BackPlate_baseColor.png"
    },
    {
      "uri": "textures/BackPlate_metallicRoughness.png"
    },
    {
      "uri": "textures/BackPlate_normal.png"
    },
    {
      "uri": "textures/BackCover_baseColor.png"
    },
    {
      "uri": "textures/BackCover_metallicRoughness.png"
    },
    {
      "uri": "textures/BackCover_normal.png"
    }
  ],
  "materials": [
    {
      "doubleSided": true,
      "emissiveFactor": [
        0,
        0,
        0
      ],
      "name": "FrontTip",
      "normalTexture": {
        "index": 2,
        "scale": 1,
        "texCoord": 0
      },
      "pbrMetallicRoughness": {
        "baseColorFactor": [
          1,
          1,
          1,
          1
        ],
        "baseColorTexture": {
          "index": 0,
          "texCoord": 0
        },
        "metallicFactor": 1,
        "metallicRoughnessTexture": {
          "index": 1,
          "texCoord": 0
        },
        "roughnessFactor": 1
      }
    },
    {
      "doubleSided": true,
      "emissiveFactor": [
        0,
        0,
        0
      ],
      "name": "Ageis",
      "normalTexture": {
        "index": 5,
        "scale": 1,
        "texCoord": 0
      },
      "pbrMetallicRoughness": {
        "baseColorFactor": [
          1,
          1,
          1,
          1
        ],
        "baseColorTexture": {
          "index": 3,
          "texCoord": 0
        },
        "metallicFactor": 1,
        "metallicRoughnessTexture": {
          "index": 4,
          "texCoord": 0
        },
        "roughnessFactor": 1
      }
    },
    {
      "doubleSided": true,
      "emissiveFactor": [
        0,
        0,
        0
      ],
      "name": "Shield",
      "normalTexture": {
        "index": 8,
        "scale": 1,
        "texCoord": 0
      },
      "pbrMetallicRoughness": {
        "baseColorFactor": [
          1,
          1,
          1,
          1
        ],
        "baseColorTexture": {
          "index": 6,
          "texCoord": 0
        },
        "metallicFactor": 1,
        "metallicRoughnessTexture": {
          "index": 7,
          "texCoord": 0
        },
        "roughnessFactor": 1
      }
    },
    {
      "doubleSided": true,
      "emissiveFactor": [
        0,
        0,
        0
      ],
      "name": "BackDecor",
      "normalTexture": {
        "index": 11,
        "scale": 1,
        "texCoord": 0
      },
      "pbrMetallicRoughness": {
        "baseColorFactor": [
          1,
          1,
          1,
          1
        ],
        "baseColorTexture": {
          "index": 9,
          "texCoord": 0
        },
        "metallicFactor": 1,
        "metallicRoughnessTexture": {
          "index": 10,
          "texCoord": 0
        },
        "roughnessFactor": 1
      }
    },
    {
      "doubleSided": true,
      "emissiveFactor": [
        0,
        0,
        0
      ],
      "name": "BackPlate",
      "normalTexture": {
        "index": 14,
        "scale": 1,
        "texCoord": 0
      },
      "pbrMetallicRoughness": {
        "baseColorFactor": [
          1,
          1,
          1,
          1
        ],
        "baseColorTexture": {
          "index": 12,
          "texCoord": 0
        },
        "metallicFactor": 1,
        "metallicRoughnessTexture": {
          "index": 13,
          "texCoord": 0
        },
        "roughnessFactor": 1
      }
    },
    {
      "doubleSided": true,
      "emissiveFactor": [
        0,
        0,
        0
      ],
      "name": "BackCover",
      "normalTexture": {
        "index": 17,
        "scale": 1,
        "texCoord": 0
      },
      "pbrMetallicRoughness": {
        "baseColorFactor": [
          1,
          1,
          1,
          1
        ],
        "baseColorTexture": {
          "index": 15,
          "texCoord": 0
        },
        "metallicFactor": 1,
        "metallicRoughnessTexture": {
          "index": 16,
          "texCoord": 0
        },
        "roughnessFactor": 1
      }
    }
  ],
  "meshes": [
    {
      "name": "FrontTip_FrontTip_0",
      "primitives": [
        {
          "attributes": {
            "NORMAL": 1,
            "POSITION": 0,
            "TANGENT": 2,
            "TEXCOORD_0": 3
          },
          "indices": 4,
          "material": 0,
          "mode": 4
        }
      ]
    },
    {
      "name": "Ageis_Ageis_0",
      "primitives": [
        {
          "attributes": {
            "NORMAL": 6,
            "POSITION": 5,
            "TANGENT": 7,
            "TEXCOORD_0": 8
          },
          "indices": 9,
          "material": 1,
          "mode": 4
        }
      ]
    },
    {
      "name": "Shield1_Shield_0",
      "primitives": [
        {
          "attributes": {
            "NORMAL": 11,
            "POSITION": 10,
            "TANGENT": 12,
            "TEXCOORD_0": 13
          },
          "indices": 14,
          "material": 2,
          "mode": 4
        }
      ]
    },
    {
      "name": "BackDecor_BackDecor_0",
      "primitives": [
        {
          "attributes": {
            "NORMAL": 16,
            "POSITION": 15,
            "TANGENT": 17,
            "TEXCOORD_0": 18
          },
          "indices": 19,
          "material": 3,
          "mode": 4
        }
      ]
    },
    {
      "name": "BackPlate_BackPlate_0",
      "primitives": [
        {
          "attributes": {
            "NORMAL": 21,
            "POSITION": 20,
            "TANGENT": 22,
            "TEXCOORD_0": 23
          },
          "indices": 24,
          "material": 4,
          "mode": 4
        }
      ]
    },
    {
      "name": "BackCover_BackCover_0",
      "primitives": [
        {
          "attributes": {
            "NORMAL": 26,
            "POSITION": 25,
            "TANGENT": 27,
            "TEXCOORD_0": 28
          },
          "indices": 29,
          "material": 5,
          "mode": 4
        }
      ]
    }
  ],
  "nodes": [
    {
      "children": [
        1
      ],
      "name": "RootNode (gltf orientation matrix)",
      "rotation": [
        -0.70710678118654746,
        -0,
        -0,
        0.70710678118654757
      ]
    },
    {
      "children": [
        2
      ],
      "matrix": [
        0.018338106572628021,
        0,
        0,
        0,
        0,
        0.018338106572628021,
        0,
        0,
        0,
        0,
        0.018338106572628021,
        0,
        0,
        0,
        0,
        1
      ],
      "name": "RootNode (model correction matrix)"
    },
    {
      "children": [
        3
      ],
      "matrix": [
        1,
        0,
        0,
        0,
        0,
        0,
        1,
        0,
        0,
        -1,
        0,
        0,
        0,
        0,
        0,
        1
      ],
      "name": "f640aa055c614891853286a390cbb7bb.fbx"
    },
    {
      "children": [
        4,
        6,
        8,
        10,
        12,
        14,
        16
      ],
      "name": "RootNode"
    },
    {
      "children": [
        5
      ],
      "matrix": [
        0.51078951818496976,
        -0.075962125065412917,
        -0.85634328611130783,
        0,
        0.038913088703291542,
        0.9971107037613961,
        -0.065238148134532437,
        0,
        0.85882468504342402,
        2.0816681711721685e-17,
        0.51226961686212058,
        0,
        -120.36714935302734,
        49.362651824951172,
        164.50477600097656,
        1
      ],
      "name": "CINEMA_4D_Editor"
    },
    {
      "name": ""
    },
    {
      "children": [
        7
      ],
      "name": "FrontTip"
    },
    {
      "mesh": 0,
      "name": "FrontTip_FrontTip_0"
    },
    {
      "children": [
        9
      ],
      "name": "Ageis"
    },
    {
      "mesh": 1,
      "name": "Ageis_Ageis_0"
    },
    {
      "children": [
        11
      ],
      "name": "Shield1"
    },
    {
      "mesh": 2,
      "name": "Shield1_Shield_0"
    },
    {
      "children": [
        13
      ],
      "name": "BackDecor"
    },
    {
      "mesh": 3,
      "name": "BackDecor_BackDecor_0"
    },
    {
      "children": [
        15
      ],
      "name": "BackPlate"
    },
    {
      "mesh": 4,
      "name": "BackPlate_BackPlate_0"
    },
    {
      "children": [
        17
      ],
      "name": "BackCover"
    },
    {
      "mesh": 5,
      "name": "BackCover_BackCover_0"
    }
  ],
  "samplers": [
    {
      "magFilter": 9729,
      "minFilter": 9987,
      "wrapS": 10497,
      "wrapT": 10497
    }
  ],
  "scene": 0,
  "scenes": [
    {
      "name": "OSG_Scene",
      "nodes": [
        0
      ]
    }
  ],
  "textures": [
    {
      "sampler": 0,
      "source": 0
    },
    {
      "sampler": 0,
      "source": 1
    },
    {
      "sampler": 0,
      "source": 2
    },
    {
      "sampler": 0,
      "source": 3
    },
    {
      "sampler": 0,
      "source": 4
    },
    {
      "sampler": 0,
      "source": 5
    },
    {
      "sampler": 0,
      "source": 6
    },
    {
      "sampler": 0,
      "source": 7
    },
    {
      "sampler": 0,
      "source": 8
    },
    {
      "sampler": 0,
      "source": 9
    },
    {
      "sampler": 0,
      "source": 10
    },
    {
      "sampler": 0,
      "source": 11
    },
    {
      "sampler": 0,
      "source": 12
    },
    {
      "sampler": 0,
      "source": 13
    },
    {
      "sampler": 0,
      "source": 14
    },
    {
      "sampler": 0,
      "source": 15
    },
    {
      "sampler": 0,
      "source": 16
    },
    {
      "sampler": 0,
      "source": 17
    }
  ]
}

